Thomas de Stoomlocomotief - Greatest Stories (2010)

[img]http://image.bayimg.com/oaaleaadp.jpg[/img]
[img]http://image.bayimg.com/oaalgaadp.jpg[/img]

Categorie: Beeld
Formaat: DVD5
Bron: Retail
Ondertitels: Geen
Genre: Animatie, kinderfilm.
Audio: Nederlands

In De Avonturen van Thomas zijn zijn vriendjes heel belangrijk. Kijk mee hoe James en Henry iedere keer weer een hoofdrol spelen. De afleveringen zijn: James en de sneltrein, James en de personenwagons, Lastige goederenwagons, Thomas en de takelwagen, Kolenwagen en draaischijven, Een smerig geval, Oud roest, Moeilijkheden, Gezoem, Percy, James en de soep, Het droevige verhaal van Henry, James is niet grappig, Edward Gordon en Henry, Kolen, De vliegende vis, Fluiten en niezen, Het bos van Henry, Kolenwagons, Henry en de olifant, Verfpotten en koninginnen, Vis, Oliver in de val.

Video en Audio informatie:
******************************
Video
ID                               : 224 (0xE0)
Format                           : MPEG Video
Format version                   : Version 2
Format profile                   : Main@Main
Format settings, BVOP            : Yes
Format settings, Matrix          : Default
Format settings, GOP             : M=2, N=14
Duration                         : 35mn 29s
Bit rate mode                    : Variable
Bit rate                         : 3 729 Kbps
Nominal bit rate                 : 8 000 Kbps
Width                            : 720 pixels
Height                           : 576 pixels
Display aspect ratio             : 4:3
Frame rate                       : 25.000 fps
Standard                         : PAL
Color space                      : YUV
Chroma subsampling               : 4:2:0
Bit depth                        : 8 bits
Scan type                        : Interlaced
Scan order                       : Top Field First
Bits/(Pixel*Frame)               : 0.360
Stream size                      : 947 MiB (92%)

Audio
ID                               : 128 (0x80)
Format                           : AC-3
Format/Info                      : Audio Coding 3
Mode extension                   : CM (complete main)
Duration                         : 35mn 29s
Bit rate mode                    : Constant
Bit rate                         : 224 Kbps
Channel(s)                       : 2 channels
Channel positions                : Front: L R
Sampling rate                    : 48.0 KHz
Bit depth                        : 16 bits
Video delay                      : -720ms
Stream size                      : 56.9 MiB (6%)

******************************
Black-Sam TBS